# xmcd
#
# Track frame offsets:
# 150
# 17960
# 30657
# 50297
# 74135
# 87147
# 100712
# 116372
# 129615
# 141547
#
# Disc length: 2075 seconds
#
#
# Revision: 0
# Processed by: cddbd v1.4PL0 Copyright (c) Steve Scherf et al.
# Submitted via: FreeRIP 2.51 
#
DISCID=8b08190a
DTITLE=Jeannie Schmidt - Christmas In The Country
DYEAR=2000
DGENRE=Christmas
TTITLE0=Love Came Down
TTITLE1=Room For The Savior
TTITLE2=Silent Night
TTITLE3=Mary
TTITLE4=Christmas In The Country
TTITLE5=Merry Merry Christmas Santa Clause
TTITLE6=Silver Bells
TTITLE7=A Letter To Santa
TTITLE8=Merry Christmas From Our House To Your House
TTITLE9=Home For The Holidays
EXTD=
EXTT0=
EXTT1=
EXTT2=
EXTT3=
EXTT4=
EXTT5=
EXTT6=
EXTT7=
EXTT8=
EXTT9=
PLAYORDER=
